<svg xmlns="http://www.w3.org/2000/svg" viewBox="0 0 244.57 130.61"><defs><style>.cls-1{fill:#fff200;}.cls-1,.cls-2,.cls-3,.cls-4,.cls-5{stroke:#231f20;stroke-miterlimit:10;stroke-width:3px;}.cls-2,.cls-5{fill:#72cbcb;}.cls-2{opacity:0.5;}.cls-3{fill:#f9ed32;}.cls-4{fill:none;}</style></defs><g id="Layer_2" data-name="Layer 2"><g id="Layer_1-2" data-name="Layer 1"><path class="cls-1" d="M65.39,37.22l173.15,91.89L89.93,129C84.74,130,78,122.45,78,122.45s7.79-19.77-12.91-22.25Z"/><polygon class="cls-2" points="1.5 129.02 237.73 129.02 1.5 2.5 1.5 73.83 1.5 129.02"/><line class="cls-3" x1="2.76" y1="55.52" x2="98.79" y2="55.52"/><polyline class="cls-4" points="48.31 54.52 48.31 127.02 7.5 91.27"/><circle class="cls-4" cx="65.13" cy="114.44" r="14.24"/><path class="cls-4" d="M65.13,96.76V36.62L114.72,64l-1,24.5S108.51,110.31,65.13,96.76Z"/><polyline class="cls-4" points="156.79 129.02 116.44 129.02 112.62 129.02 112.62 113.61 112.62 97.2 156.79 97.2"/><line class="cls-4" x1="156.79" y1="112.61" x2="112.62" y2="112.61"/><polyline class="cls-4" points="164.66 128.02 164.66 93.2 201.84 126.56 201.84 110.11"/><path class="cls-5" d="M78,122.45S84.7,129,87.9,129"/></g></g></svg>